<svg xmlns="http://www.w3.org/2000/svg" viewBox="0 0 128 128" width="128" height="128">
  <rect width="100%" height="100%" fill="#20242c" />
  <path d="M 21.38 71.72 L 21.38 77.76 L 28.09 79.1 L 28.09 112.66 L 29.44 114 L 99.23 113.33 L 99.23 79.77 L 100.58 78.43 L 105.28 78.43 L 106.62 77.09 L 106.62 72.39 L 105.28 71.05 Z M 34.13 78.43 L 34.81 77.76 L 36.82 78.43 L 90.51 78.43 L 92.52 77.76 L 93.19 78.43 L 92.52 79.77 L 92.52 105.95 L 93.19 107.29 L 92.52 107.96 L 91.18 107.29 L 36.15 107.29 L 34.81 107.96 L 34.13 107.29 L 34.81 105.95 L 34.81 79.1 Z" fill="#898C99" stroke="none" stroke-width="0" fill-rule="nonzero" />
  <path d="M 57.62 14 L 35.48 36.15 L 35.48 41.52 L 41.52 42.19 L 60.31 24.07 L 60.31 62.99 L 66.35 63.66 L 66.35 24.74 L 68.36 24.07 L 86.48 42.19 L 91.18 42.19 L 92.52 40.85 L 92.52 36.82 L 69.7 14 Z" fill="#898C99" stroke="none" stroke-width="0" fill-rule="nonzero" />
</svg>
