<svg xmlns="http://www.w3.org/2000/svg" viewBox="0 0 128 128" width="128" height="128">
  <rect width="100%" height="100%" fill="#20242c" />
  <path d="M 79.75 48.65 L 78.96 47.86 L 49.04 47.86 L 47.46 49.43 L 47.46 74.63 L 14.39 107.7 L 14.39 113.21 L 19.91 114 L 53.76 80.14 L 78.96 80.14 L 79.75 79.35 Z M 53.76 54.94 L 54.55 54.16 L 56.13 54.16 L 56.91 54.94 L 70.3 54.94 L 71.09 54.16 L 72.66 54.16 L 74.24 55.73 L 72.66 58.09 L 72.66 69.91 L 74.24 72.27 L 72.66 73.84 L 71.09 73.84 L 70.3 73.06 L 56.91 73.06 L 56.13 73.84 L 54.55 73.84 L 53.76 73.06 L 53.76 71.48 L 54.55 70.69 L 54.55 57.31 L 53.76 56.52 Z" fill="#898C99" stroke="none" stroke-width="0" fill-rule="nonzero" />
  <path d="M 14.39 14.79 L 14.39 20.3 L 23.84 30.54 L 14.39 39.98 L 15.97 63.61 L 21.48 62.03 L 21.48 45.5 L 45.89 21.09 L 82.11 21.09 L 106.52 45.5 L 106.52 82.5 L 82.11 106.91 L 65.57 106.91 L 64.79 113.21 L 86.83 114 L 98.65 104.55 L 108.09 114 L 112.03 114 L 113.61 107.7 L 104.16 96.68 L 113.61 87.23 L 113.61 40.77 L 104.16 29.75 L 113.61 20.3 L 113.61 15.57 L 108.09 14 L 96.28 23.45 L 86.83 14 L 41.17 14 L 29.35 23.45 L 19.91 14 Z" fill="#898C99" stroke="none" stroke-width="0" fill-rule="nonzero" />
</svg>
