<svg xmlns="http://www.w3.org/2000/svg" viewBox="0 0 128 128" width="128" height="128">
  <rect width="100%" height="100%" fill="#20242c" />
  <path d="M 14 36.6 L 14 70.85 L 21.53 72.22 L 21.53 78.38 L 14 79.75 L 14 92.08 L 28.38 78.38 L 27.01 69.48 L 21.53 65.37 L 22.9 43.45 L 42.77 44.82 L 42.77 71.53 L 50.3 72.22 L 50.3 78.38 L 42.77 79.75 L 42.77 91.4 L 57.15 77.7 L 56.47 70.85 L 50.3 65.37 L 51.67 43.45 L 70.85 44.82 L 70.85 70.85 L 79.07 72.9 L 77.7 79.07 L 70.85 79.75 L 71.53 92.08 L 85.92 77.01 L 84.55 70.16 L 78.38 64.68 L 79.75 43.45 L 99.62 44.82 L 99.62 70.85 L 107.84 73.59 L 106.47 79.07 L 99.62 79.75 L 99.62 91.4 L 114 79.07 L 114 71.53 L 107.15 65.37 L 106.47 35.92 Z" fill="#898C99" stroke="none" stroke-width="0" fill-rule="nonzero" />
</svg>
