<svg xmlns="http://www.w3.org/2000/svg" viewBox="0 0 128 128" width="128" height="128">
  <rect width="100%" height="100%" fill="#20242c" />
  <path d="M 51.87 90.33 L 51.87 94.47 L 52.46 95.07 L 74.95 95.07 L 76.13 93.88 L 76.13 90.92 L 74.95 89.74 L 52.46 89.74 Z" fill="#898C99" stroke="none" stroke-width="0" fill-rule="nonzero" />
  <path d="M 100.98 83.82 L 99.8 83.23 L 96.84 83.23 L 90.33 89.74 L 83.82 89.74 L 83.23 90.33 L 83.23 94.47 L 83.82 95.07 L 93.88 95.07 L 100.98 87.96 Z" fill="#898C99" stroke="none" stroke-width="0" fill-rule="nonzero" />
  <path d="M 26.43 84.41 L 26.43 87.96 L 33.53 95.07 L 43.59 95.07 L 44.18 94.47 L 44.18 90.33 L 43.59 89.74 L 37.08 89.74 L 30.57 83.23 L 27.61 83.23 Z" fill="#898C99" stroke="none" stroke-width="0" fill-rule="nonzero" />
  <path d="M 14 58.97 L 14 69.03 L 21.1 76.13 L 25.24 75.54 L 25.24 71.4 L 21.69 67.85 L 22.28 66.07 L 47.73 66.66 L 48.32 71.99 L 55.42 79.09 L 71.99 79.09 L 79.09 71.99 L 80.27 66.66 L 105.12 66.07 L 106.31 67.25 L 102.17 71.4 L 102.76 76.13 L 106.9 76.13 L 114 68.44 L 114 59.56 L 106.9 51.87 L 102.17 52.46 L 102.17 56.6 L 106.31 60.75 L 105.12 61.93 L 80.27 61.34 L 79.09 56.01 L 71.99 48.91 L 55.42 48.91 L 48.32 56.01 L 47.73 61.34 L 22.28 61.93 L 21.69 60.15 L 25.24 56.6 L 24.65 51.87 L 21.1 51.87 Z M 58.97 54.24 L 68.44 54.24 L 73.76 59.56 L 73.76 68.44 L 68.44 73.76 L 58.97 73.76 L 54.24 69.03 L 53.64 67.85 L 53.64 60.15 L 54.24 58.97 Z" fill="#898C99" stroke="none" stroke-width="0" fill-rule="nonzero" />
  <path d="M 83.23 33.53 L 83.23 37.67 L 83.82 38.26 L 90.33 38.26 L 96.84 44.77 L 99.8 44.77 L 100.98 44.18 L 100.98 40.04 L 93.88 32.93 L 83.82 32.93 Z" fill="#898C99" stroke="none" stroke-width="0" fill-rule="nonzero" />
  <path d="M 51.87 33.53 L 51.87 37.67 L 52.46 38.26 L 74.95 38.26 L 76.13 37.08 L 76.13 34.12 L 74.95 32.93 L 52.46 32.93 Z" fill="#898C99" stroke="none" stroke-width="0" fill-rule="nonzero" />
  <path d="M 44.18 33.53 L 43.59 32.93 L 33.53 32.93 L 26.43 40.04 L 26.43 43.59 L 27.61 44.77 L 30.57 44.77 L 36.49 38.85 L 37.67 38.26 L 43.59 38.26 L 44.18 37.67 Z" fill="#898C99" stroke="none" stroke-width="0" fill-rule="nonzero" />
</svg>
