<svg xmlns="http://www.w3.org/2000/svg" viewBox="0 0 128 128" width="128" height="128">
  <rect width="100%" height="100%" fill="#20242c" />
  <path d="M 14 22.85 L 14 105.15 L 15.77 106.92 L 112.23 106.92 L 114 105.15 L 114 37.01 L 112.23 35.24 L 62.67 35.24 L 48.51 21.08 L 15.77 21.08 Z M 21.96 58.25 L 22.85 57.36 L 48.51 57.36 L 62.67 43.2 L 105.15 43.2 L 106.04 44.09 L 106.04 98.07 L 105.15 98.96 L 22.85 98.96 L 21.96 98.07 Z M 21.96 29.93 L 22.85 29.04 L 44.09 29.04 L 53.82 38.78 L 53.82 39.66 L 44.09 49.4 L 22.85 49.4 L 21.96 48.51 Z" fill="#898C99" stroke="none" stroke-width="0" fill-rule="nonzero" />
</svg>
