<svg xmlns="http://www.w3.org/2000/svg" viewBox="0 0 128 128" width="128" height="128">
  <rect width="100%" height="100%" fill="#20242c" />
  <path d="M 61.97 14.34 L 61.3 34.61 L 59.95 35.96 L 36.3 35.96 L 35.62 60.28 L 15.35 60.96 L 14 65.69 L 15.35 67.04 L 34.95 67.04 L 36.3 92.04 L 59.95 92.04 L 61.3 93.39 L 61.3 112.99 L 66.7 113.66 L 67.38 93.39 L 68.73 92.04 L 91.7 92.04 L 92.38 68.39 L 93.73 67.04 L 113.32 67.04 L 114 61.64 L 93.73 60.96 L 92.38 59.61 L 92.38 36.64 L 68.73 35.96 L 67.38 34.61 L 67.38 15.01 Z M 42.38 40.69 L 44.41 42.04 L 59.95 42.04 L 61.3 43.39 L 61.97 56.23 L 66.03 56.23 L 67.38 54.88 L 68.05 42.04 L 83.59 42.04 L 85.62 40.69 L 86.97 42.04 L 86.3 59.61 L 84.95 60.96 L 72.11 61.64 L 72.78 67.04 L 84.95 67.04 L 86.3 68.39 L 86.97 85.96 L 85.62 87.31 L 83.59 85.96 L 68.05 85.96 L 67.38 73.12 L 66.03 71.77 L 61.3 72.45 L 61.3 84.61 L 59.95 85.96 L 44.41 85.96 L 42.38 87.31 L 41.03 85.96 L 41.7 68.39 L 43.05 67.04 L 55.22 67.04 L 56.57 65.69 L 56.57 62.31 L 55.22 60.96 L 43.05 60.96 L 41.7 59.61 L 41.03 42.04 Z" fill="#898C99" stroke="none" stroke-width="0" fill-rule="nonzero" />
</svg>
