<svg xmlns="http://www.w3.org/2000/svg" viewBox="0 0 128 128" width="128" height="128">
  <rect width="100%" height="100%" fill="#20242c" />
  <path d="M 25.11 34.37 L 17.7 46.22 L 14 66.22 L 16.22 78.07 L 20.67 87.7 L 32.52 101.04 L 43.63 107.7 L 52.52 110.67 L 63.63 111.41 L 65.11 95.85 L 74 106.96 L 81.41 110.67 L 114 111.41 L 113.26 80.3 L 109.56 73.63 L 97.7 64.74 L 114 64 L 114 57.33 L 107.33 39.56 L 97.7 28.44 L 90.3 23.26 L 77.7 18.07 L 59.19 16.59 L 45.85 19.56 L 36.96 24 Z M 64.37 78.81 L 64.37 64.74 L 65.11 64 L 79.93 64 L 80.67 64.74 L 79.19 66.22 L 73.26 69.19 L 68.81 73.63 L 66.59 78.07 L 65.11 79.56 Z" fill="#898C99" stroke="none" stroke-width="0" fill-rule="nonzero" />
</svg>
