<svg xmlns="http://www.w3.org/2000/svg" viewBox="0 0 128 128" width="128" height="128">
  <rect width="100%" height="100%" fill="#20242c" />
  <path d="M 96.35 95.47 L 95.76 96.06 L 95.76 100.76 L 96.35 101.35 L 101.06 101.35 L 101.65 100.76 L 101.65 96.65 L 100.47 95.47 Z" fill="#898C99" stroke="none" stroke-width="0" fill-rule="nonzero" />
  <path d="M 62.24 95.47 L 61.06 96.65 L 61.06 100.76 L 61.65 101.35 L 66.35 101.35 L 66.94 100.76 L 66.94 96.06 L 66.35 95.47 Z" fill="#898C99" stroke="none" stroke-width="0" fill-rule="nonzero" />
  <path d="M 27.53 95.47 L 26.35 96.65 L 26.35 100.18 L 27.53 101.35 L 31.65 101.35 L 32.82 100.18 L 32.82 96.65 L 31.65 95.47 Z" fill="#898C99" stroke="none" stroke-width="0" fill-rule="nonzero" />
  <path d="M 96.35 83.12 L 95.76 83.71 L 95.76 88.41 L 96.35 89 L 100.47 89 L 101.65 87.82 L 101.65 83.71 L 101.06 83.12 Z" fill="#898C99" stroke="none" stroke-width="0" fill-rule="nonzero" />
  <path d="M 27.53 83.12 L 26.35 84.29 L 26.35 87.82 L 27.53 89 L 31.65 89 L 32.82 87.82 L 32.82 84.29 L 31.65 83.12 Z" fill="#898C99" stroke="none" stroke-width="0" fill-rule="nonzero" />
  <path d="M 96.35 39 L 89.29 46.06 L 89.29 75.47 L 90.47 76.65 L 106.35 76.65 L 106.94 76.06 L 108.71 76.06 L 109.29 76.65 L 112.82 76.65 L 114 75.47 L 114 64.88 L 113.41 64.29 L 108.71 64.29 L 108.12 63.71 L 108.12 46.65 L 100.47 39 Z M 98.12 47.82 L 99.29 47.82 L 101.65 50.18 L 101.65 69 L 102.24 69.59 L 101.65 70.76 L 100.47 70.18 L 96.94 70.18 L 96.35 70.76 L 95.18 70.76 L 94.59 70.18 L 95.18 69.59 L 95.18 50.76 Z" fill="#898C99" stroke="none" stroke-width="0" fill-rule="nonzero" />
  <path d="M 31.65 39 L 27.53 39 L 20.47 46.06 L 20.47 63.71 L 19.88 64.29 L 14.59 64.29 L 14 64.88 L 14 75.47 L 15.18 76.65 L 18.71 76.65 L 19.29 76.06 L 21.06 76.06 L 21.65 76.65 L 37.53 76.65 L 38.71 75.47 L 38.71 46.06 Z M 28.71 47.82 L 30.47 47.82 L 32.82 50.18 L 32.82 69 L 33.41 69.59 L 32.82 70.76 L 31.65 70.76 L 31.06 70.18 L 28.12 70.18 L 27.53 70.76 L 26.35 70.76 L 25.76 70.18 L 26.35 69 L 26.35 50.18 Z" fill="#898C99" stroke="none" stroke-width="0" fill-rule="nonzero" />
  <path d="M 61.65 26.65 L 51.65 36.65 L 51.65 70.18 L 51.06 70.76 L 46.94 70.18 L 45.18 71.94 L 45.18 87.82 L 46.35 89 L 51.06 88.41 L 81.65 89 L 82.82 87.82 L 82.82 71.35 L 81.65 70.18 L 77.53 70.76 L 76.35 69.59 L 76.35 36.65 L 66.35 26.65 Z M 64 34.88 L 64.59 34.88 L 70.47 40.76 L 70.47 81.94 L 71.06 82.53 L 70.47 83.71 L 69.29 83.12 L 58.71 83.12 L 57.53 83.71 L 56.94 83.12 L 57.53 81.94 L 57.53 41.35 Z" fill="#898C99" stroke="none" stroke-width="0" fill-rule="nonzero" />
</svg>
