<svg xmlns="http://www.w3.org/2000/svg" viewBox="0 0 128 128" width="128" height="128">
  <rect width="100%" height="100%" fill="#20242c" />
  <path d="M 75.39 64.95 L 74.76 66.22 L 74.76 77.61 L 74.13 78.24 L 69.06 78.24 L 68.43 78.87 L 68.43 96.59 L 75.39 103.56 L 93.11 103.56 L 100.71 95.96 L 100.71 66.22 L 100.08 64.95 Z M 80.46 69.38 L 81.72 69.38 L 82.35 70.01 L 93.11 70.01 L 93.75 69.38 L 95.01 69.38 L 96.28 70.65 L 96.28 71.28 L 95.01 72.54 L 95.01 92.8 L 89.32 98.49 L 79.19 98.49 L 75.39 94.7 L 75.39 94.06 L 74.76 94.06 L 73.49 92.8 L 73.49 85.84 L 72.86 85.2 L 72.86 83.3 L 73.49 82.67 L 74.76 82.67 L 75.39 83.3 L 79.82 83.3 L 80.46 82.04 L 80.46 72.54 L 79.19 71.28 L 79.19 70.65 Z" fill="#898C99" stroke="none" stroke-width="0" fill-rule="nonzero" />
  <path d="M 28.56 64.95 L 27.92 65.58 L 27.92 96.59 L 34.89 103.56 L 52.61 103.56 L 60.2 95.96 L 60.2 79.51 L 58.94 78.24 L 54.51 78.24 L 53.24 76.97 L 53.24 65.58 L 52.61 64.95 Z M 32.99 69.38 L 34.89 69.38 L 35.52 70.01 L 45.65 70.01 L 46.28 69.38 L 48.18 69.38 L 48.81 70.01 L 48.81 71.28 L 48.18 71.91 L 48.18 82.67 L 48.81 83.3 L 52.61 83.3 L 53.24 82.67 L 54.51 82.67 L 55.77 83.94 L 54.51 86.47 L 54.51 92.8 L 48.81 98.49 L 38.68 98.49 L 32.99 92.8 L 32.99 72.54 L 32.35 71.91 L 32.35 70.01 Z" fill="#898C99" stroke="none" stroke-width="0" fill-rule="nonzero" />
  <path d="M 96.28 51.03 L 95.01 52.29 L 95.01 55.46 L 96.28 56.72 L 103.24 56.72 L 108.3 61.78 L 108.94 63.05 L 108.94 76.34 L 110.2 76.97 L 112.73 76.97 L 114 75.71 L 114 58.62 L 107.04 51.66 L 105.77 51.03 Z" fill="#898C99" stroke="none" stroke-width="0" fill-rule="nonzero" />
  <path d="M 54.51 52.29 L 54.51 55.46 L 55.77 56.72 L 72.23 56.72 L 73.49 55.46 L 73.49 52.29 L 72.23 51.03 L 55.77 51.03 Z" fill="#898C99" stroke="none" stroke-width="0" fill-rule="nonzero" />
  <path d="M 31.72 51.03 L 22.23 51.03 L 14 59.25 L 14 75.71 L 15.27 76.97 L 18.43 76.97 L 19.7 75.71 L 19.7 62.42 L 25.39 56.72 L 31.72 56.72 L 32.99 55.46 L 32.99 52.29 Z" fill="#898C99" stroke="none" stroke-width="0" fill-rule="nonzero" />
  <path d="M 75.39 24.44 L 74.76 25.71 L 74.76 41.53 L 75.39 42.8 L 80.46 42.8 L 81.72 44.06 L 81.72 55.46 L 82.99 56.72 L 85.52 56.72 L 86.78 56.09 L 86.78 44.06 L 88.05 42.8 L 93.11 42.8 L 93.75 42.16 L 93.75 25.08 L 93.11 24.44 Z M 79.19 30.14 L 80.46 28.87 L 81.72 28.87 L 82.35 29.51 L 86.15 29.51 L 86.78 28.87 L 88.68 28.87 L 89.32 29.51 L 89.32 30.77 L 88.68 31.41 L 88.68 35.84 L 89.32 36.47 L 89.32 37.73 L 88.68 38.37 L 86.78 38.37 L 86.15 37.73 L 82.35 37.73 L 81.72 38.37 L 80.46 38.37 L 79.19 37.1 L 79.19 36.47 L 80.46 35.2 L 80.46 32.67 Z" fill="#898C99" stroke="none" stroke-width="0" fill-rule="nonzero" />
  <path d="M 34.89 24.44 L 34.25 25.71 L 34.25 41.53 L 34.89 42.8 L 39.95 42.8 L 41.22 44.06 L 41.22 55.46 L 42.48 56.72 L 45.01 56.72 L 46.28 56.09 L 46.28 44.06 L 47.54 42.8 L 52.61 42.8 L 53.24 42.16 L 53.24 25.08 L 52.61 24.44 Z M 38.68 30.14 L 39.95 28.87 L 41.22 28.87 L 41.85 29.51 L 45.65 29.51 L 46.28 28.87 L 48.18 28.87 L 48.81 29.51 L 48.81 30.77 L 48.18 31.41 L 48.18 35.84 L 48.81 36.47 L 48.81 37.73 L 48.18 38.37 L 46.28 38.37 L 45.65 37.73 L 41.85 37.73 L 41.22 38.37 L 39.95 38.37 L 38.68 37.1 L 38.68 36.47 L 39.95 35.2 L 39.95 32.04 L 38.68 30.77 Z" fill="#898C99" stroke="none" stroke-width="0" fill-rule="nonzero" />
</svg>
