<svg xmlns="http://www.w3.org/2000/svg" viewBox="0 0 128 128" width="128" height="128">
  <rect width="100%" height="100%" fill="#20242c" />
  <path d="M 95.76 27.21 L 94.5 28.47 L 93.87 42.93 L 87.58 49.22 L 86.96 54.25 L 81.92 54.25 L 80.67 55.51 L 80.67 72.49 L 81.92 73.75 L 86.33 73.75 L 87.58 75.01 L 87.58 78.78 L 93.87 85.07 L 94.5 99.53 L 95.76 100.79 L 112.11 100.79 L 114 98.91 L 114 82.55 L 112.74 81.3 L 99.53 81.3 L 93.87 76.26 L 94.5 73.75 L 100.16 73.12 L 100.16 54.88 L 94.5 54.25 L 93.87 51.74 L 99.53 46.7 L 113.37 46.7 L 114 29.09 L 112.11 27.21 Z" fill="#898C99" stroke="none" stroke-width="0" fill-rule="nonzero" />
  <path d="M 62.43 27.21 L 60.54 29.09 L 60.54 42.93 L 54.25 49.22 L 54.25 52.99 L 52.99 54.25 L 48.59 54.25 L 47.33 55.51 L 47.33 72.49 L 48.59 73.75 L 52.99 73.75 L 54.25 75.01 L 54.25 78.78 L 60.54 85.07 L 61.17 100.16 L 78.78 100.79 L 80.04 99.53 L 80.04 81.92 L 65.57 81.3 L 59.91 75.64 L 61.17 73.75 L 65.57 73.75 L 66.83 72.49 L 66.83 55.51 L 65.57 54.25 L 61.17 54.25 L 59.91 52.36 L 65.57 46.7 L 80.04 46.08 L 80.04 27.84 Z" fill="#898C99" stroke="none" stroke-width="0" fill-rule="nonzero" />
  <path d="M 28.47 27.21 L 27.21 28.47 L 27.21 42.3 L 20.92 48.59 L 19.66 54.25 L 14 54.88 L 14 73.12 L 19.66 73.75 L 20.92 79.41 L 27.21 85.7 L 27.21 99.53 L 28.47 100.79 L 45.45 100.79 L 46.7 99.53 L 46.7 81.92 L 32.24 81.3 L 26.58 76.26 L 27.84 73.75 L 32.24 73.75 L 33.5 72.49 L 33.5 55.51 L 32.24 54.25 L 27.21 54.25 L 26.58 51.74 L 32.24 46.7 L 46.7 46.08 L 46.7 28.47 L 45.45 27.21 Z" fill="#898C99" stroke="none" stroke-width="0" fill-rule="nonzero" />
</svg>
