<svg xmlns="http://www.w3.org/2000/svg" viewBox="0 0 128 128" width="128" height="128">
  <rect width="100%" height="100%" fill="#20242c" />
  <path d="M 70.47 71.35 L 70.47 75.47 L 71.65 76.65 L 76.94 76.65 L 77.53 77.24 L 70.47 83.71 L 70.47 87.82 L 71.65 89 L 81.65 89 L 91.06 79.59 L 93.41 79.59 L 102.82 89 L 113.41 89 L 114 88.41 L 114 83.71 L 108.71 78.41 L 106.94 77.82 L 107.53 76.65 L 112.82 76.65 L 114 75.47 L 114 71.35 L 112.82 70.18 L 96.35 70.18 L 95.18 69 L 95.18 64.88 L 94.59 64.29 L 89.88 64.29 L 88.71 70.18 L 71.65 70.18 Z" fill="#898C99" stroke="none" stroke-width="0" fill-rule="nonzero" />
  <path d="M 96.35 39 L 95.76 39.59 L 95.76 63.12 L 96.35 63.71 L 106.94 63.71 L 108.12 62.53 L 108.12 40.18 L 106.94 39 Z" fill="#898C99" stroke="none" stroke-width="0" fill-rule="nonzero" />
  <path d="M 77.53 39 L 76.94 39.59 L 76.94 63.12 L 77.53 63.71 L 88.12 63.71 L 89.29 62.53 L 89.29 40.18 L 88.12 39 Z" fill="#898C99" stroke="none" stroke-width="0" fill-rule="nonzero" />
  <path d="M 15.18 39 L 14 40.18 L 14 87.82 L 15.18 89 L 62.82 89 L 64 87.82 L 64 71.35 L 62.82 70.18 L 58.12 71.35 L 58.12 77.24 L 52.24 83.12 L 25.76 83.12 L 19.88 77.24 L 19.88 50.76 L 25.76 44.88 L 52.24 44.88 L 58.12 50.76 L 58.12 56.65 L 62.82 57.82 L 64 56.65 L 64 40.18 L 62.82 39 Z" fill="#898C99" stroke="none" stroke-width="0" fill-rule="nonzero" />
</svg>
