<svg xmlns="http://www.w3.org/2000/svg" viewBox="0 0 128 128" width="128" height="128">
  <rect width="100%" height="100%" fill="#20242c" />
  <path d="M 55.42 20.51 L 54.83 31.75 L 45.95 32.93 L 32.93 45.95 L 32.93 60.15 L 24.65 61.34 L 25.24 45.95 L 21.1 45.36 L 21.1 60.75 L 14.59 61.34 L 14 66.07 L 21.1 67.25 L 21.1 82.64 L 25.24 82.05 L 24.65 66.66 L 31.75 66.66 L 32.93 82.05 L 45.95 95.07 L 54.83 96.25 L 54.83 106.9 L 71.99 107.49 L 72.58 96.25 L 81.46 95.07 L 95.07 81.46 L 95.07 67.25 L 102.76 66.66 L 102.17 81.46 L 106.31 82.64 L 106.9 66.66 L 112.82 66.66 L 114 62.52 L 106.9 61.34 L 106.31 45.36 L 102.17 46.54 L 102.76 61.34 L 95.66 61.34 L 95.07 46.54 L 81.46 32.93 L 72.58 31.75 L 72.58 21.1 Z M 38.26 76.72 L 38.85 76.13 L 69.62 76.13 L 70.8 77.31 L 70.8 88.56 L 69.62 89.74 L 50.09 89.74 L 38.26 77.91 Z M 88.56 57.2 L 89.74 58.38 L 89.74 77.31 L 89.15 78.5 L 77.91 89.74 L 76.72 89.74 L 76.13 89.15 L 76.13 57.79 L 76.72 57.2 Z M 56.01 57.79 L 57.2 56.6 L 58.38 56.6 L 58.97 57.2 L 69.03 57.2 L 69.62 56.6 L 70.8 56.6 L 71.4 57.2 L 71.4 58.38 L 70.8 58.97 L 70.8 69.03 L 71.4 69.62 L 71.4 70.8 L 70.8 71.4 L 69.62 71.4 L 69.03 70.8 L 58.97 70.8 L 58.38 71.4 L 57.2 71.4 L 56.01 70.21 L 57.2 68.44 L 57.2 59.56 Z M 57.2 38.85 L 57.79 38.26 L 77.31 38.26 L 78.5 38.85 L 89.15 49.5 L 89.74 50.69 L 88.56 51.87 L 57.79 51.87 L 57.2 51.28 Z M 50.69 38.26 L 51.87 39.44 L 51.87 69.62 L 50.69 70.8 L 38.85 70.8 L 38.26 70.21 L 38.26 50.09 L 50.09 38.26 Z" fill="#898C99" stroke="none" stroke-width="0" fill-rule="nonzero" />
</svg>
