<svg xmlns="http://www.w3.org/2000/svg" viewBox="0 0 128 128" width="128" height="128">
  <rect width="100%" height="100%" fill="#20242c" />
  <path d="M 62.24 86.06 L 61.06 87.24 L 61.06 103.71 L 62.82 104.88 L 65.18 104.88 L 66.94 103.71 L 66.94 87.24 L 65.76 86.06 Z" fill="#898C99" stroke="none" stroke-width="0" fill-rule="nonzero" />
  <path d="M 14 56.06 L 15.18 73.12 L 19.88 72.53 L 20.47 67.24 L 25.76 67.24 L 27.53 73.12 L 31.65 73.12 L 33.41 67.24 L 55.76 67.24 L 49.29 73.71 L 32.82 74.88 L 34 79.59 L 42.82 79.59 L 39.29 83.71 L 40.47 89 L 49.29 85.47 L 50.47 95.47 L 54.59 94.29 L 54.59 78.41 L 62.82 70.18 L 73.41 78.41 L 75.18 95.47 L 79.88 93.71 L 79.88 84.88 L 84 89 L 88.71 88.41 L 85.18 79.59 L 94 79.59 L 95.18 74.29 L 78.71 73.71 L 73.41 66.06 L 95.18 67.24 L 96.35 73.12 L 100.47 73.12 L 102.24 67.24 L 107.53 67.24 L 109.29 73.12 L 114 72.53 L 113.41 54.88 L 109.29 54.88 L 107.53 60.76 L 102.24 60.76 L 101.65 56.06 L 96.35 54.88 L 95.18 60.76 L 72.82 61.35 L 78.71 54.29 L 95.18 53.71 L 94 48.41 L 85.18 48.41 L 89.29 43.12 L 88.12 39 L 78.71 41.94 L 78.12 32.53 L 73.41 34.29 L 73.41 49.59 L 65.18 57.82 L 54.59 49.59 L 54 33.12 L 48.71 33.71 L 48.71 43.12 L 44 39 L 39.29 40.18 L 42.82 48.41 L 34 48.41 L 32.82 53.12 L 49.29 54.29 L 54.59 61.94 L 33.41 60.76 L 31.65 54.88 L 27.53 54.88 L 25.76 60.76 L 20.47 60.76 L 19.29 54.88 Z" fill="#898C99" stroke="none" stroke-width="0" fill-rule="nonzero" />
  <path d="M 62.82 23.12 L 61.06 24.29 L 61.06 40.76 L 62.24 41.94 L 65.76 41.94 L 66.94 40.76 L 66.94 24.29 L 65.18 23.12 Z" fill="#898C99" stroke="none" stroke-width="0" fill-rule="nonzero" />
</svg>
