<svg xmlns="http://www.w3.org/2000/svg" viewBox="0 0 128 128" width="128" height="128">
  <rect width="100%" height="100%" fill="#20242c" />
  <path d="M 61.65 26.65 L 60.47 51.35 L 56.35 51.35 L 44 39 L 39.29 39.59 L 39.29 44.29 L 51.65 56.65 L 51.06 61.35 L 15.18 60.76 L 14 66.06 L 51.06 66.65 L 51.65 71.35 L 39.29 83.71 L 39.29 88.41 L 44 89 L 56.35 76.65 L 60.47 76.65 L 61.06 100.76 L 66.35 101.35 L 67.53 76.65 L 71.65 76.65 L 84 89 L 89.29 87.82 L 89.29 84.29 L 76.94 71.94 L 77.53 66.65 L 112.82 67.24 L 114 61.94 L 77.53 61.35 L 76.94 56.06 L 89.29 43.71 L 89.29 40.18 L 84 39 L 71.65 51.35 L 67.53 51.35 L 66.94 27.24 Z M 56.94 57.82 L 57.53 57.24 L 58.71 57.24 L 59.29 57.82 L 68.71 57.82 L 69.29 57.24 L 70.47 57.24 L 71.06 57.82 L 70.47 59 L 70.47 69 L 71.06 70.18 L 70.47 70.76 L 69.29 70.76 L 68.71 70.18 L 59.29 70.18 L 58.71 70.76 L 57.53 70.76 L 56.94 70.18 L 57.53 69.59 L 57.53 58.41 Z" fill="#898C99" stroke="none" stroke-width="0" fill-rule="nonzero" />
</svg>
