<svg xmlns="http://www.w3.org/2000/svg" viewBox="0 0 128 128" width="128" height="128">
  <rect width="100%" height="100%" fill="#20242c" />
  <path d="M 14 55.45 L 14.66 73.21 L 40.97 73.87 L 22.55 92.95 L 33.74 105.45 L 63.34 77.16 L 94.26 105.45 L 105.45 92.95 L 87.03 73.87 L 114 72.55 L 113.34 54.79 L 86.37 54.79 L 64 76.5 L 41.63 54.79 Z" fill="#898C99" stroke="none" stroke-width="0" fill-rule="nonzero" />
  <path d="M 22.55 33.74 L 22.55 35.05 L 31.11 43.61 L 39 48.87 L 48.21 52.82 L 58.08 54.79 L 74.53 54.13 L 85.05 50.84 L 96.89 43.61 L 105.45 35.05 L 105.45 33.74 L 94.26 22.55 L 92.95 22.55 L 64.66 50.84 L 63.34 50.84 L 35.05 22.55 L 33.74 22.55 Z" fill="#898C99" stroke="none" stroke-width="0" fill-rule="nonzero" />
</svg>
