<svg xmlns="http://www.w3.org/2000/svg" viewBox="0 0 128 128" width="128" height="128">
  <rect width="100%" height="100%" fill="#20242c" />
  <path d="M 66.94 41.35 L 66.94 87.24 L 98.12 87.24 L 98.71 76.06 L 101.65 72.53 L 114 71.94 L 113.41 40.76 L 102.24 40.76 L 101.06 41.94 L 101.06 71.35 L 96.94 74.88 L 79.88 74.29 L 79.88 41.94 L 78.71 40.76 Z" fill="#898C99" stroke="none" stroke-width="0" fill-rule="nonzero" />
  <path d="M 14 41.35 L 14 87.24 L 26.94 86.65 L 27.53 53.71 L 45.76 54.29 L 48.71 58.41 L 48.71 87.24 L 61.65 86.65 L 61.65 57.24 L 60.47 56.06 L 49.29 56.06 L 47.53 54.88 L 45.76 51.94 L 45.76 41.35 Z" fill="#898C99" stroke="none" stroke-width="0" fill-rule="nonzero" />
</svg>
