<svg xmlns="http://www.w3.org/2000/svg" viewBox="0 0 128 128" width="128" height="128">
  <rect width="100%" height="100%" fill="#20242c" />
  <path d="M 56.48 72.41 L 56.48 112.23 L 58.25 114 L 112.23 114 L 114 112.23 L 114 72.41 L 112.23 70.64 L 58.25 70.64 Z M 64.44 79.49 L 65.33 78.6 L 105.15 78.6 L 106.04 79.49 L 106.04 105.15 L 105.15 106.04 L 65.33 106.04 L 64.44 105.15 Z" fill="#898C99" stroke="none" stroke-width="0" fill-rule="nonzero" />
  <path d="M 35.24 90.99 L 37.01 92.76 L 48.51 92.76 L 50.28 90.99 L 50.28 86.57 L 48.51 84.8 L 44.09 84.8 L 43.2 83.91 L 43.2 58.25 L 44.09 57.36 L 83.91 57.36 L 84.8 58.25 L 84.8 62.67 L 86.57 64.44 L 90.99 64.44 L 92.76 62.67 L 92.76 51.17 L 90.99 49.4 L 37.01 49.4 L 35.24 51.17 Z" fill="#898C99" stroke="none" stroke-width="0" fill-rule="nonzero" />
  <path d="M 14 69.75 L 15.77 71.52 L 27.27 71.52 L 29.04 69.75 L 29.04 65.33 L 27.27 63.56 L 22.85 63.56 L 21.96 62.67 L 21.96 37.01 L 22.85 36.12 L 55.59 36.12 L 56.48 37.01 L 56.48 41.43 L 58.25 43.2 L 62.67 43.2 L 64.44 41.43 L 64.44 29.93 L 62.67 28.16 L 15.77 28.16 L 14 29.93 Z" fill="#898C99" stroke="none" stroke-width="0" fill-rule="nonzero" />
  <path d="M 107.81 14 L 106.04 15.77 L 106.04 62.67 L 107.81 64.44 L 112.23 64.44 L 114 62.67 L 114 15.77 L 112.23 14 Z" fill="#898C99" stroke="none" stroke-width="0" fill-rule="nonzero" />
  <path d="M 79.49 14 L 77.72 15.77 L 77.72 34.35 L 79.49 36.12 L 98.07 36.12 L 99.84 34.35 L 99.84 29.93 L 98.07 28.16 L 86.57 28.16 L 85.68 27.27 L 85.68 22.85 L 86.57 21.96 L 98.07 21.96 L 99.84 20.19 L 99.84 15.77 L 98.07 14 Z" fill="#898C99" stroke="none" stroke-width="0" fill-rule="nonzero" />
</svg>
