<svg xmlns="http://www.w3.org/2000/svg" viewBox="0 0 128 128" width="128" height="128">
  <rect width="100%" height="100%" fill="#20242c" />
  <path d="M 14 28.88 L 14 99.12 L 15.65 100.78 L 112.35 100.78 L 114 99.12 L 114 28.88 L 112.35 27.22 L 15.65 27.22 Z M 21.44 68.55 L 22.26 67.72 L 59.45 67.72 L 60.28 72.68 L 61.93 74.33 L 66.07 74.33 L 67.72 72.68 L 68.55 67.72 L 105.74 67.72 L 106.56 68.55 L 106.56 92.51 L 105.74 93.34 L 22.26 93.34 L 21.44 92.51 Z M 21.44 35.49 L 22.26 34.66 L 105.74 34.66 L 106.56 35.49 L 106.56 59.45 L 105.74 60.28 L 68.55 60.28 L 67.72 55.32 L 66.07 53.67 L 61.93 53.67 L 60.28 55.32 L 59.45 60.28 L 22.26 60.28 L 21.44 59.45 Z" fill="#898C99" stroke="none" stroke-width="0" fill-rule="nonzero" />
</svg>
