<svg xmlns="http://www.w3.org/2000/svg" viewBox="0 0 128 128" width="128" height="128">
  <rect width="100%" height="100%" fill="#20242c" />
  <path d="M 20.47 80.18 L 19.88 81.35 L 19.88 84.29 L 20.47 85.47 L 21.65 86.06 L 25.18 86.06 L 26.35 84.29 L 26.35 81.35 L 25.18 79.59 L 21.65 79.59 Z" fill="#898C99" stroke="none" stroke-width="0" fill-rule="nonzero" />
  <path d="M 20.47 42.53 L 19.88 43.71 L 19.88 46.65 L 20.47 47.82 L 21.65 48.41 L 25.18 48.41 L 26.35 46.65 L 26.35 43.71 L 25.76 42.53 L 24.59 41.94 L 21.65 41.94 Z" fill="#898C99" stroke="none" stroke-width="0" fill-rule="nonzero" />
  <path d="M 14 55.47 L 14.59 73.12 L 31.65 73.12 L 34 67.24 L 58.71 91.94 L 64 90.76 L 64.59 67.24 L 82.82 67.82 L 82.82 80.18 L 75.76 73.71 L 71.06 73.71 L 70.47 79 L 83.41 91.94 L 88.71 91.35 L 88.71 68.41 L 106.94 67.24 L 108.12 80.18 L 100.47 73.71 L 96.35 73.71 L 95.18 78.41 L 108.71 91.94 L 114 91.35 L 113.41 36.06 L 108.71 36.06 L 95.18 49.59 L 96.35 54.29 L 100.47 54.29 L 108.12 47.82 L 106.94 60.76 L 88.71 59.59 L 88.12 36.06 L 83.41 36.06 L 70.47 49 L 70.47 53.71 L 75.76 54.29 L 82.82 47.82 L 82.24 60.76 L 64 60.18 L 62.82 36.06 L 58.71 36.06 L 34 60.76 L 31.65 54.88 Z M 44.59 67.82 L 45.18 67.24 L 56.94 67.24 L 57.53 67.82 L 57.53 78.41 L 58.12 79.59 L 56.94 80.18 Z M 19.29 60.76 L 19.88 60.18 L 21.06 60.76 L 25.18 60.76 L 26.35 60.18 L 26.94 60.76 L 26.35 61.94 L 26.35 66.06 L 26.94 67.24 L 26.35 67.82 L 25.18 67.24 L 21.06 67.24 L 19.88 67.82 L 19.29 67.24 L 19.88 66.06 L 19.88 61.94 Z M 57.53 47.82 L 58.12 48.41 L 57.53 49.59 L 57.53 60.18 L 56.94 60.76 L 45.18 60.76 L 44.59 60.18 L 56.94 47.82 Z" fill="#898C99" stroke="none" stroke-width="0" fill-rule="nonzero" />
</svg>
