<svg xmlns="http://www.w3.org/2000/svg" viewBox="0 0 128 128" width="128" height="128">
  <rect width="100%" height="100%" fill="#20242c" />
  <path d="M 62.12 74 L 60.88 75.25 L 60.88 92.75 L 62.12 94 L 65.88 94 L 67.12 92.75 L 67.12 74.62 L 66.5 74 Z" fill="#898C99" stroke="none" stroke-width="0" fill-rule="nonzero" />
  <path d="M 114 68.38 L 112.75 67.12 L 109 67.12 L 107.75 68.38 L 107.75 79.62 L 108.38 80.25 L 107.75 81.5 L 106.5 80.88 L 88.38 80.88 L 87.75 81.5 L 87.75 86.5 L 88.38 87.12 L 112.75 87.12 L 114 85.88 Z" fill="#898C99" stroke="none" stroke-width="0" fill-rule="nonzero" />
  <path d="M 67.75 68.38 L 67.75 72.75 L 69 74 L 85.88 74 L 87.12 72.75 L 87.12 68.38 L 85.88 67.12 L 69 67.12 Z" fill="#898C99" stroke="none" stroke-width="0" fill-rule="nonzero" />
  <path d="M 40.88 68.38 L 40.88 72.75 L 42.12 74 L 59 74 L 60.25 73.38 L 60.88 72.12 L 60.88 69 L 60.25 67.75 L 59 67.12 L 42.12 67.12 Z" fill="#898C99" stroke="none" stroke-width="0" fill-rule="nonzero" />
  <path d="M 14.62 67.75 L 14 69 L 14 85.88 L 15.25 87.12 L 39.62 87.12 L 40.88 85.88 L 40.88 82.12 L 39.62 80.88 L 21.5 80.88 L 20.88 81.5 L 20.25 80.88 L 20.25 79.62 L 20.88 79 L 20.88 69 L 20.25 67.75 L 19 67.12 L 15.88 67.12 Z" fill="#898C99" stroke="none" stroke-width="0" fill-rule="nonzero" />
  <path d="M 67.75 54.62 L 67.75 59.62 L 68.38 60.25 L 86.5 60.25 L 87.12 59.62 L 87.12 54.62 L 86.5 54 L 68.38 54 Z" fill="#898C99" stroke="none" stroke-width="0" fill-rule="nonzero" />
  <path d="M 40.88 55.25 L 40.88 59.62 L 41.5 60.25 L 59.62 60.25 L 60.88 59 L 60.88 55.25 L 59.62 54 L 42.12 54 Z" fill="#898C99" stroke="none" stroke-width="0" fill-rule="nonzero" />
  <path d="M 87.75 41.5 L 87.75 46.5 L 89 47.12 L 105.88 47.12 L 106.5 46.5 L 107.75 46.5 L 108.38 47.12 L 107.75 48.38 L 107.75 59.62 L 108.38 60.25 L 113.38 60.25 L 114 59.62 L 114 41.5 L 113.38 40.88 L 88.38 40.88 Z" fill="#898C99" stroke="none" stroke-width="0" fill-rule="nonzero" />
  <path d="M 14 59 L 15.25 60.25 L 19.62 60.25 L 20.88 59 L 20.88 49 L 20.25 48.38 L 20.25 47.12 L 20.88 46.5 L 22.12 47.12 L 39.62 47.12 L 40.88 45.88 L 40.88 42.12 L 39.62 40.88 L 15.25 40.88 L 14 42.12 Z" fill="#898C99" stroke="none" stroke-width="0" fill-rule="nonzero" />
  <path d="M 62.12 34 L 60.88 35.25 L 60.88 52.75 L 62.12 54 L 65.88 54 L 67.12 52.75 L 67.12 34.62 L 66.5 34 Z" fill="#898C99" stroke="none" stroke-width="0" fill-rule="nonzero" />
</svg>
