<svg xmlns="http://www.w3.org/2000/svg" viewBox="0 0 128 128" width="128" height="128">
  <rect width="100%" height="100%" fill="#20242c" />
  <path d="M 39.66 42.32 L 38.78 77.72 L 45.86 79.49 L 45.86 113.12 L 53.82 113.12 L 53.82 79.49 L 73.29 78.6 L 74.18 113.12 L 81.26 114 L 82.14 79.49 L 89.22 77.72 L 89.22 43.2 L 81.26 43.2 L 81.26 76.83 L 75.95 77.72 L 75.06 43.2 L 53.82 42.32 L 52.94 76.83 L 47.63 77.72 L 46.74 43.2 Z M 61.79 50.28 L 66.21 50.28 L 67.1 51.17 L 67.1 69.75 L 66.21 70.64 L 61.79 70.64 L 60.9 69.75 L 60.9 51.17 Z" fill="#898C99" stroke="none" stroke-width="0" fill-rule="nonzero" />
  <path d="M 53.82 14 L 52.94 14.88 L 52.94 35.24 L 53.82 36.12 L 74.18 36.12 L 75.06 35.24 L 75.06 14.88 L 74.18 14 Z M 60.9 22.85 L 61.79 21.96 L 66.21 21.96 L 67.1 22.85 L 67.1 27.27 L 66.21 28.16 L 61.79 28.16 L 60.9 27.27 Z" fill="#898C99" stroke="none" stroke-width="0" fill-rule="nonzero" />
</svg>
