<svg xmlns="http://www.w3.org/2000/svg" viewBox="0 0 128 128" width="128" height="128">
  <rect width="100%" height="100%" fill="#20242c" />
  <path d="M 69.04 67.96 L 69.04 75.15 L 98.53 74.43 L 99.25 76.59 L 68.32 107.53 L 68.32 112.56 L 69.76 114 L 74.07 114 L 106.45 82.35 L 106.45 112.56 L 107.88 114 L 112.2 114 L 113.64 112.56 L 113.64 68.68 Z" fill="#898C99" stroke="none" stroke-width="0" fill-rule="nonzero" />
  <path d="M 15.8 67.96 L 14.36 69.4 L 15.08 75.15 L 45.29 74.43 L 46.01 75.87 L 14.36 107.53 L 14.36 112.56 L 15.8 114 L 20.12 114 L 52.49 82.35 L 52.49 111.84 L 54.65 114 L 59.68 113.28 L 60.4 69.4 L 58.96 67.96 Z" fill="#898C99" stroke="none" stroke-width="0" fill-rule="nonzero" />
  <path d="M 69.76 14 L 68.32 15.44 L 68.32 20.47 L 69.76 21.91 L 98.53 21.19 L 99.25 22.63 L 68.32 53.57 L 68.32 59.32 L 74.07 60.04 L 106.45 28.39 L 106.45 58.6 L 107.88 60.04 L 112.92 60.04 L 113.64 15.44 L 112.2 14 Z" fill="#898C99" stroke="none" stroke-width="0" fill-rule="nonzero" />
  <path d="M 15.8 14 L 14.36 15.44 L 14.36 20.47 L 15.8 21.91 L 46.01 21.91 L 14.36 53.57 L 14.36 58.6 L 15.8 60.04 L 20.83 60.04 L 52.49 28.39 L 52.49 58.6 L 53.93 60.04 L 58.96 60.04 L 60.4 58.6 L 59.68 14.72 Z" fill="#898C99" stroke="none" stroke-width="0" fill-rule="nonzero" />
</svg>
