<svg xmlns="http://www.w3.org/2000/svg" viewBox="0 0 128 128" width="128" height="128">
  <rect width="100%" height="100%" fill="#20242c" />
  <path d="M 14 61.34 L 14 73.76 L 14.59 74.36 L 28.79 74.36 L 28.79 61.34 L 28.2 60.75 L 14.59 60.75 Z" fill="#898C99" stroke="none" stroke-width="0" fill-rule="nonzero" />
  <path d="M 68.44 53.64 L 69.03 67.25 L 82.05 67.25 L 83.23 68.44 L 73.17 78.5 L 73.17 79.68 L 83.23 89.15 L 87.37 86.19 L 98.02 75.54 L 99.8 76.13 L 99.8 89.15 L 114 89.15 L 114 76.13 L 99.8 74.95 L 99.8 73.76 L 105.72 67.25 L 95.66 57.2 L 86.19 66.07 L 83.82 67.25 L 83.23 53.05 Z" fill="#898C99" stroke="none" stroke-width="0" fill-rule="nonzero" />
  <path d="M 84.41 38.26 L 84.41 51.87 L 114 51.87 L 114 38.26 Z" fill="#898C99" stroke="none" stroke-width="0" fill-rule="nonzero" />
  <path d="M 45.36 38.26 L 45.36 52.46 L 34.71 63.11 L 45.36 73.76 L 45.36 74.95 L 29.98 75.54 L 29.98 89.15 L 66.66 89.74 L 67.25 74.95 L 45.36 53.64 L 45.36 52.46 L 67.25 51.87 L 67.25 38.26 Z" fill="#898C99" stroke="none" stroke-width="0" fill-rule="nonzero" />
</svg>
