<svg xmlns="http://www.w3.org/2000/svg" viewBox="0 0 128 128" width="128" height="128">
  <rect width="100%" height="100%" fill="#20242c" />
  <path d="M 14 38.14 L 14 41.59 L 27.79 55.38 L 27.79 58.83 L 20.9 65.72 L 20.9 76.07 L 27.79 82.97 L 27.79 86.41 L 14 100.21 L 17.45 107.1 L 20.9 107.1 L 34.69 93.31 L 55.38 93.31 L 62.28 86.41 L 65.72 86.41 L 72.62 93.31 L 93.31 93.31 L 107.1 107.1 L 114 103.66 L 114 100.21 L 100.21 86.41 L 100.21 82.97 L 107.1 76.07 L 107.1 65.72 L 100.21 58.83 L 100.21 55.38 L 114 41.59 L 110.55 34.69 L 107.1 34.69 L 93.31 48.48 L 34.69 48.48 L 20.9 34.69 Z M 82.97 58.83 L 89.86 62.28 L 89.86 79.52 L 86.41 82.97 L 79.52 79.52 L 79.52 62.28 Z M 62.28 58.83 L 69.17 62.28 L 69.17 72.62 L 65.72 76.07 L 58.83 72.62 L 58.83 62.28 Z M 41.59 58.83 L 48.48 62.28 L 48.48 79.52 L 45.03 82.97 L 38.14 79.52 L 38.14 62.28 Z" fill="#898C99" stroke="none" stroke-width="0" fill-rule="nonzero" />
  <path d="M 34.69 24.34 L 34.69 34.69 L 38.14 38.14 L 48.48 38.14 L 51.93 34.69 L 58.83 38.14 L 69.17 38.14 L 72.62 34.69 L 79.52 38.14 L 89.86 38.14 L 93.31 34.69 L 93.31 24.34 L 89.86 20.9 L 79.52 20.9 L 76.07 24.34 L 69.17 20.9 L 58.83 20.9 L 55.38 24.34 L 48.48 20.9 L 38.14 20.9 Z" fill="#898C99" stroke="none" stroke-width="0" fill-rule="nonzero" />
</svg>
