<svg xmlns="http://www.w3.org/2000/svg" viewBox="0 0 128 128" width="128" height="128">
  <rect width="100%" height="100%" fill="#20242c" />
  <path d="M 14 31.61 L 14 36.01 L 20.92 38.53 L 21.55 63.69 L 52.99 63.69 L 54.88 57.4 L 61.17 58.65 L 59.91 77.52 L 54.88 77.52 L 52.36 70.6 L 27.84 71.23 L 27.21 90.1 L 20.92 91.99 L 22.18 97.65 L 46.08 97.65 L 54.25 89.47 L 55.51 83.81 L 73.12 83.81 L 74.38 89.47 L 82.55 97.65 L 107.71 96.39 L 107.71 91.99 L 100.79 89.47 L 99.53 70.6 L 75.64 70.6 L 73.75 77.52 L 68.09 77.52 L 67.46 58.03 L 73.75 57.4 L 75.01 63.69 L 107.08 63.69 L 107.71 37.9 L 114 36.64 L 114 30.98 L 82.55 30.35 L 74.38 38.53 L 73.75 50.48 L 68.09 50.48 L 66.83 44.19 L 61.8 44.19 L 59.91 50.48 L 54.88 50.48 L 54.25 38.53 L 46.08 30.35 Z M 80.04 77.52 L 80.67 76.89 L 81.92 76.89 L 82.55 77.52 L 92.62 77.52 L 93.25 76.89 L 94.5 76.89 L 95.13 77.52 L 94.5 78.78 L 94.5 89.47 L 95.13 90.73 L 94.5 91.36 L 93.25 91.36 L 92.62 90.73 L 86.33 90.73 L 81.3 85.7 L 80.67 84.44 L 80.67 78.15 Z M 33.5 77.52 L 34.13 76.89 L 35.38 77.52 L 46.08 77.52 L 47.33 76.89 L 47.96 77.52 L 47.33 78.78 L 47.33 85.7 L 42.3 90.73 L 35.38 90.73 L 34.13 91.36 L 33.5 90.73 L 34.13 89.47 L 34.13 78.78 Z M 101.42 36.64 L 102.05 37.27 L 101.42 37.9 L 101.42 56.14 L 102.05 57.4 L 101.42 58.03 L 100.16 57.4 L 81.92 57.4 L 80.67 58.03 L 80.04 57.4 L 80.67 56.14 L 80.67 42.93 L 86.33 37.27 L 99.53 37.27 L 100.16 36.64 Z M 26.58 37.27 L 27.21 36.64 L 28.47 36.64 L 29.09 37.27 L 42.3 37.27 L 47.33 42.3 L 47.33 55.51 L 47.96 56.14 L 47.96 57.4 L 47.33 58.03 L 46.08 57.4 L 28.47 57.4 L 27.21 58.03 L 26.58 57.4 L 27.21 56.14 L 27.21 38.53 Z" fill="#898C99" stroke="none" stroke-width="0" fill-rule="nonzero" />
</svg>
