<svg xmlns="http://www.w3.org/2000/svg" viewBox="0 0 128 128" width="128" height="128">
  <rect width="100%" height="100%" fill="#20242c" />
  <path d="M 61.65 78.43 L 60.98 79.1 L 60.98 84.47 L 61.65 85.14 L 67.02 85.14 L 67.69 84.47 L 67.69 79.77 L 66.35 78.43 Z" fill="#898C99" stroke="none" stroke-width="0" fill-rule="nonzero" />
  <path d="M 61.65 42.86 L 60.98 43.53 L 60.98 70.38 L 61.65 71.05 L 66.35 71.05 L 67.69 69.7 L 67.69 43.53 L 67.02 42.86 Z" fill="#898C99" stroke="none" stroke-width="0" fill-rule="nonzero" />
  <path d="M 58.3 14 L 14 58.3 L 14 69.7 L 58.3 114 L 70.38 114 L 114 70.38 L 114 57.62 L 70.38 14 Z M 63.66 20.71 L 65.01 20.71 L 107.29 62.99 L 107.29 65.01 L 65.01 107.29 L 62.32 106.62 L 21.38 65.68 L 21.38 62.32 Z" fill="#898C99" stroke="none" stroke-width="0" fill-rule="nonzero" />
</svg>
