<svg xmlns="http://www.w3.org/2000/svg" viewBox="0 0 128 128" width="128" height="128">
  <rect width="100%" height="100%" fill="#20242c" />
  <path d="M 26.35 61.94 L 26.35 65.47 L 28.12 67.24 L 59.29 67.24 L 61.06 66.06 L 62.24 67.24 L 65.76 67.24 L 66.94 66.06 L 68.71 67.24 L 99.88 67.24 L 101.65 65.47 L 101.65 61.94 L 100.47 60.76 L 68.71 60.76 L 68.12 61.35 L 65.76 60.76 L 62.24 60.76 L 61.65 61.35 L 59.88 60.76 L 27.53 60.76 Z" fill="#898C99" stroke="none" stroke-width="0" fill-rule="nonzero" />
  <path d="M 96.35 39 L 95.76 39.59 L 95.76 44.29 L 96.35 44.88 L 106.94 44.88 L 107.53 44.29 L 108.71 44.88 L 108.12 46.06 L 108.12 81.94 L 108.71 83.12 L 108.12 83.71 L 106.94 83.12 L 96.35 83.12 L 95.76 83.71 L 95.76 88.41 L 96.35 89 L 112.82 89 L 114 87.82 L 114 39.59 L 112.82 39 Z" fill="#898C99" stroke="none" stroke-width="0" fill-rule="nonzero" />
  <path d="M 15.18 39 L 14 40.18 L 14 87.82 L 15.18 89 L 31.65 89 L 32.82 87.24 L 32.82 84.29 L 31.65 83.12 L 21.06 83.12 L 20.47 83.71 L 19.29 83.12 L 19.88 81.94 L 19.88 46.06 L 19.29 44.88 L 19.88 44.29 L 21.06 44.88 L 31.65 44.88 L 32.82 43.71 L 32.82 40.18 L 31.65 39 Z" fill="#898C99" stroke="none" stroke-width="0" fill-rule="nonzero" />
</svg>
