<svg xmlns="http://www.w3.org/2000/svg" viewBox="0 0 128 128" width="128" height="128">
  <rect width="100%" height="100%" fill="#20242c" />
  <path d="M 86.48 21.38 L 85.14 22.72 L 85.14 105.28 L 86.48 106.62 L 112.66 106.62 L 114 105.28 L 114 84.47 L 92.52 62.99 L 92.52 58.97 L 91.18 56.95 L 92.52 55.61 L 94.54 56.95 L 111.99 56.95 L 114 54.94 L 114 51.58 L 111.99 49.57 L 93.87 49.57 L 92.52 50.91 L 91.18 49.57 L 92.52 48.23 L 92.52 22.72 L 91.18 21.38 Z M 93.19 73.73 L 93.87 73.73 L 106.62 86.48 L 106.62 97.89 L 107.96 99.91 L 107.29 100.58 L 105.95 100.58 L 105.28 99.91 L 93.87 99.91 L 93.19 100.58 L 91.85 100.58 L 91.18 99.91 L 92.52 97.89 L 92.52 74.4 Z" fill="#898C99" stroke="none" stroke-width="0" fill-rule="nonzero" />
  <path d="M 50.24 21.38 L 49.57 105.28 L 50.24 106.62 L 77.09 106.62 L 77.76 83.8 L 56.28 62.32 L 55.61 56.95 L 56.95 55.61 L 58.3 56.95 L 76.42 56.95 L 77.76 55.61 L 77.76 50.91 L 76.42 49.57 L 58.3 49.57 L 56.95 50.91 L 55.61 49.57 L 56.28 22.05 Z M 56.95 73.73 L 57.62 73.73 L 71.05 87.15 L 71.05 98.56 L 71.72 99.23 L 71.05 100.58 L 69.7 99.91 L 58.3 99.91 L 57.62 100.58 L 56.28 100.58 L 55.61 99.91 L 56.28 98.56 L 56.28 74.4 Z" fill="#898C99" stroke="none" stroke-width="0" fill-rule="nonzero" />
  <path d="M 14.67 21.38 L 14 105.95 L 41.52 106.62 L 42.19 84.47 L 20.71 62.32 L 20.04 56.28 L 40.85 56.95 L 42.19 55.61 L 42.19 50.91 L 40.85 49.57 L 20.04 49.57 L 20.71 22.72 L 20.04 21.38 Z M 21.38 73.73 L 22.05 73.73 L 35.48 87.15 L 35.48 98.56 L 36.15 99.23 L 35.48 100.58 L 34.13 100.58 L 33.46 99.91 L 22.05 99.91 L 20.71 100.58 L 20.04 99.91 L 20.71 98.56 L 20.71 74.4 Z" fill="#898C99" stroke="none" stroke-width="0" fill-rule="nonzero" />
</svg>
