<svg xmlns="http://www.w3.org/2000/svg" viewBox="0 0 128 128" width="128" height="128">
  <rect width="100%" height="100%" fill="#20242c" />
  <path d="M 14 65.94 L 14 86.87 L 28.73 101.6 L 99.27 101.6 L 114 86.87 L 114 65.94 L 99.27 51.21 L 28.73 51.21 Z M 107.02 80.67 L 107.02 84.54 L 96.95 94.62 L 89.19 94.62 L 88.42 93.84 L 95.4 86.87 L 95.4 80.67 L 96.17 79.89 L 106.25 79.89 Z M 88.42 80.67 L 88.42 84.54 L 78.34 94.62 L 70.59 94.62 L 69.81 93.84 L 76.79 86.87 L 76.79 80.67 L 77.57 79.89 L 87.64 79.89 Z M 58.19 80.67 L 58.96 79.89 L 69.04 79.89 L 69.81 80.67 L 69.81 84.54 L 64.39 89.97 L 63.61 89.97 L 58.19 84.54 Z M 39.58 80.67 L 40.36 79.89 L 50.43 79.89 L 51.21 80.67 L 51.21 86.87 L 58.19 93.84 L 57.41 94.62 L 49.66 94.62 L 39.58 84.54 Z M 20.98 80.67 L 21.75 79.89 L 31.83 79.89 L 32.6 80.67 L 32.6 86.87 L 39.58 93.84 L 38.81 94.62 L 31.05 94.62 L 20.98 84.54 Z M 106.25 79.89 L 107.02 79.12 L 107.8 79.89 L 107.02 80.67 Z M 94.62 79.89 L 95.4 79.12 L 96.17 79.89 L 95.4 80.67 Z M 87.64 79.89 L 88.42 79.12 L 89.19 79.89 L 88.42 80.67 Z M 76.02 79.89 L 76.79 79.12 L 77.57 79.89 L 76.79 80.67 Z M 69.04 79.89 L 69.81 79.12 L 70.59 79.89 L 69.81 80.67 Z M 57.41 79.89 L 58.19 79.12 L 58.96 79.89 L 58.19 80.67 Z M 50.43 79.89 L 51.21 79.12 L 51.98 79.89 L 51.21 80.67 Z M 38.81 79.89 L 39.58 79.12 L 40.36 79.89 L 39.58 80.67 Z M 31.83 79.89 L 32.6 79.12 L 33.38 79.89 L 32.6 80.67 Z M 20.2 79.89 L 20.98 79.12 L 21.75 79.89 L 20.98 80.67 Z M 106.25 72.91 L 107.02 72.14 L 107.8 72.91 L 107.02 73.69 Z M 94.62 72.91 L 95.4 72.14 L 96.17 72.91 L 95.4 73.69 Z M 87.64 72.91 L 88.42 72.14 L 89.19 72.91 L 88.42 73.69 Z M 76.02 72.91 L 76.79 72.14 L 77.57 72.91 L 76.79 73.69 Z M 69.04 72.91 L 69.81 72.14 L 70.59 72.91 L 69.81 73.69 Z M 57.41 72.91 L 58.19 72.14 L 58.96 72.91 L 58.19 73.69 Z M 50.43 72.91 L 51.21 72.14 L 51.98 72.91 L 51.21 73.69 Z M 38.81 72.91 L 39.58 72.14 L 40.36 72.91 L 39.58 73.69 Z M 31.83 72.91 L 32.6 72.14 L 33.38 72.91 L 32.6 73.69 Z M 20.2 72.91 L 20.98 72.14 L 21.75 72.91 L 20.98 73.69 Z M 58.19 68.26 L 63.61 62.84 L 64.39 62.84 L 69.81 68.26 L 69.81 72.14 L 69.04 72.91 L 58.96 72.91 L 58.19 72.14 Z M 88.42 58.96 L 89.19 58.19 L 96.95 58.19 L 107.02 68.26 L 107.02 72.14 L 106.25 72.91 L 96.17 72.91 L 95.4 72.14 L 95.4 65.94 Z M 69.81 58.96 L 70.59 58.19 L 78.34 58.19 L 88.42 68.26 L 88.42 72.14 L 87.64 72.91 L 77.57 72.91 L 76.79 72.14 L 76.79 65.94 Z M 58.19 58.96 L 51.21 65.94 L 51.21 72.14 L 50.43 72.91 L 40.36 72.91 L 39.58 72.14 L 39.58 68.26 L 49.66 58.19 L 57.41 58.19 Z M 39.58 58.96 L 32.6 65.94 L 32.6 72.14 L 31.83 72.91 L 21.75 72.91 L 20.98 72.14 L 20.98 68.26 L 31.05 58.19 L 38.81 58.19 Z" fill="#898C99" stroke="none" stroke-width="0" fill-rule="nonzero" />
  <path d="M 38.81 34.16 L 38.81 38.03 L 40.36 39.58 L 44.23 39.58 L 45.01 40.36 L 45.01 44.23 L 46.56 45.78 L 56.64 45.78 L 58.19 44.23 L 58.19 40.36 L 58.96 39.58 L 87.64 39.58 L 89.19 38.03 L 89.19 34.16 L 87.64 32.6 L 58.96 32.6 L 58.19 31.83 L 58.19 27.95 L 56.64 26.4 L 46.56 26.4 L 45.01 27.95 L 45.01 31.83 L 44.23 32.6 L 40.36 32.6 Z M 57.41 39.58 L 58.19 38.81 L 58.96 39.58 L 58.19 40.36 Z M 44.23 39.58 L 45.01 38.81 L 45.78 39.58 L 45.01 40.36 Z M 57.41 32.6 L 58.19 31.83 L 58.96 32.6 L 58.19 33.38 Z M 44.23 32.6 L 45.01 31.83 L 45.78 32.6 L 45.01 33.38 Z" fill="#898C99" stroke="none" stroke-width="0" fill-rule="nonzero" />
</svg>
