<svg xmlns="http://www.w3.org/2000/svg" viewBox="0 0 128 128" width="128" height="128">
  <path d="M 27.89 14 L 25.11 19.56 L 25.11 100.11 L 27.89 105.67 L 36.22 114 L 91.78 114 L 102.89 100.11 L 102.89 19.56 L 100.11 14 L 94.56 14 L 89 25.11 L 39 25.11 L 36.22 22.33 L 36.22 16.78 L 33.44 14 Z M 36.22 64 L 39 61.22 L 55.67 61.22 L 58.44 64 L 58.44 69.56 L 61.22 72.33 L 66.78 72.33 L 72.33 61.22 L 89 61.22 L 91.78 64 L 91.78 102.89 L 89 105.67 L 39 105.67 L 36.22 102.89 Z M 36.22 36.22 L 39 33.44 L 89 33.44 L 91.78 36.22 L 91.78 50.11 L 89 52.89 L 39 52.89 L 36.22 50.11 Z" fill="#898C99" stroke="none" stroke-width="0" fill-rule="nonzero" />
</svg>
