<svg xmlns="http://www.w3.org/2000/svg" viewBox="0 0 128 128" width="128" height="128">
  <path d="M 28.29 42.57 L 25.9 44.95 L 25.9 75.9 L 28.29 78.29 L 35.43 78.29 L 40.19 83.05 L 40.19 114 L 56.86 114 L 56.86 83.05 L 61.62 78.29 L 66.38 78.29 L 71.14 83.05 L 71.14 114 L 87.81 114 L 87.81 83.05 L 92.57 78.29 L 99.71 78.29 L 102.1 75.9 L 102.1 44.95 L 99.71 42.57 L 83.05 42.57 L 83.05 71.14 L 78.29 73.52 L 75.9 71.14 L 75.9 42.57 L 52.1 42.57 L 52.1 71.14 L 47.33 73.52 L 44.95 71.14 L 44.95 42.57 Z M 78.29 80.67 L 83.05 83.05 L 83.05 104.48 L 80.67 106.86 L 75.9 104.48 L 75.9 83.05 Z M 47.33 78.29 L 52.1 83.05 L 52.1 104.48 L 47.33 109.24 L 44.95 106.86 L 44.95 80.67 Z" fill="#898C99" stroke="none" stroke-width="0" fill-rule="nonzero" />
  <path d="M 52.1 14 L 52.1 35.43 L 75.9 35.43 L 75.9 14 Z M 56.86 23.52 L 61.62 18.76 L 66.38 18.76 L 71.14 23.52 L 71.14 25.9 L 66.38 30.67 L 61.62 30.67 L 56.86 25.9 Z" fill="#898C99" stroke="none" stroke-width="0" fill-rule="nonzero" />
</svg>
