<svg xmlns="http://www.w3.org/2000/svg" viewBox="0 0 128 128" width="128" height="128">
  <path d="M 74 70.67 L 70.67 74 L 70.67 110.67 L 74 114 L 114 114 L 114 74 L 110.67 70.67 Z M 74 80.67 L 80.67 74 L 107.33 74 L 110.67 77.33 L 110.67 107.33 L 107.33 110.67 L 80.67 110.67 L 74 104 Z" fill="#898C99" stroke="none" stroke-width="0" fill-rule="nonzero" />
  <path d="M 17.33 70.67 L 14 74 L 14 114 L 54 114 L 57.33 110.67 L 57.33 74 L 54 70.67 Z M 17.33 77.33 L 20.67 74 L 47.33 74 L 54 80.67 L 54 104 L 47.33 110.67 L 20.67 110.67 L 17.33 107.33 Z" fill="#898C99" stroke="none" stroke-width="0" fill-rule="nonzero" />
  <path d="M 70.67 14 L 70.67 54 L 74 57.33 L 110.67 57.33 L 114 54 L 114 14 Z M 74 20.67 L 77.33 17.33 L 107.33 17.33 L 110.67 20.67 L 110.67 47.33 L 104 54 L 80.67 54 L 74 47.33 Z" fill="#898C99" stroke="none" stroke-width="0" fill-rule="nonzero" />
  <path d="M 14 14 L 14 54 L 17.33 57.33 L 54 57.33 L 57.33 54 L 57.33 17.33 L 54 14 Z M 17.33 20.67 L 20.67 17.33 L 47.33 17.33 L 54 24 L 54 47.33 L 47.33 54 L 20.67 54 L 17.33 50.67 Z" fill="#898C99" stroke="none" stroke-width="0" fill-rule="nonzero" />
</svg>
