<svg xmlns="http://www.w3.org/2000/svg" viewBox="0 0 128 128" width="128" height="128">
  <path d="M 14 33.44 L 14 94.56 L 22.33 102.89 L 105.67 102.89 L 114 94.56 L 114 33.44 L 105.67 25.11 L 22.33 25.11 Z M 19.56 72.33 L 25.11 66.78 L 55.67 66.78 L 61.22 72.33 L 61.22 75.11 L 66.78 75.11 L 66.78 72.33 L 72.33 66.78 L 102.89 66.78 L 108.44 72.33 L 108.44 94.56 L 105.67 97.33 L 22.33 97.33 L 19.56 94.56 Z M 19.56 33.44 L 22.33 30.67 L 102.89 30.67 L 108.44 36.22 L 108.44 55.67 L 102.89 61.22 L 72.33 61.22 L 64 52.89 L 55.67 61.22 L 25.11 61.22 L 19.56 55.67 Z" fill="#898C99" stroke="none" stroke-width="0" fill-rule="nonzero" />
</svg>
