<svg xmlns="http://www.w3.org/2000/svg" viewBox="0 0 128 128" width="128" height="128">
  <path d="M 109.24 49.71 L 109.24 78.29 L 114 78.29 L 114 49.71 Z" fill="#898C99" stroke="none" stroke-width="0" fill-rule="nonzero" />
  <path d="M 49.71 49.71 L 49.71 78.29 L 78.29 78.29 L 78.29 49.71 Z M 54.48 56.86 L 56.86 54.48 L 71.14 54.48 L 73.52 56.86 L 73.52 71.14 L 71.14 73.52 L 56.86 73.52 L 54.48 71.14 Z" fill="#898C99" stroke="none" stroke-width="0" fill-rule="nonzero" />
  <path d="M 14 49.71 L 14 78.29 L 18.76 78.29 L 18.76 49.71 Z" fill="#898C99" stroke="none" stroke-width="0" fill-rule="nonzero" />
  <path d="M 33.05 28.29 L 25.9 37.81 L 25.9 90.19 L 28.29 94.95 L 37.81 102.1 L 90.19 102.1 L 94.95 99.71 L 102.1 90.19 L 102.1 37.81 L 99.71 33.05 L 90.19 25.9 L 37.81 25.9 Z M 30.67 35.43 L 35.43 30.67 L 92.57 30.67 L 97.33 35.43 L 97.33 92.57 L 92.57 97.33 L 35.43 97.33 L 30.67 92.57 Z" fill="#898C99" stroke="none" stroke-width="0" fill-rule="nonzero" />
</svg>
