<svg xmlns="http://www.w3.org/2000/svg" viewBox="0 0 128 128" width="128" height="128">
  <path d="M 50.84 14 L 37.68 27.16 L 37.68 100.84 L 50.84 114 L 74.53 114 L 82.42 103.47 L 87.68 103.47 L 90.32 100.84 L 90.32 95.58 L 79.79 90.32 L 79.79 85.05 L 90.32 79.79 L 90.32 74.53 L 79.79 69.26 L 79.79 64 L 90.32 58.74 L 90.32 53.47 L 79.79 48.21 L 79.79 42.95 L 82.42 40.32 L 87.68 40.32 L 90.32 37.68 L 90.32 32.42 L 82.42 29.79 L 79.79 24.53 L 69.26 14 Z M 50.84 50.84 L 66.63 50.84 L 69.26 53.47 L 69.26 100.84 L 66.63 103.47 L 56.11 103.47 L 48.21 95.58 L 48.21 53.47 Z M 48.21 32.42 L 56.11 24.53 L 66.63 24.53 L 69.26 27.16 L 69.26 37.68 L 66.63 40.32 L 50.84 40.32 L 48.21 37.68 Z" fill="#898C99" stroke="none" stroke-width="0" fill-rule="nonzero" />
</svg>
