<svg xmlns="http://www.w3.org/2000/svg" viewBox="0 0 128 128" width="128" height="128">
  <path d="M 34 96.5 L 36.5 99 L 104 99 L 106.5 96.5 Z" fill="#898C99" stroke="none" stroke-width="0" fill-rule="nonzero" />
  <path d="M 56.5 71.5 L 61.5 76.5 L 61.5 79 L 66.5 81.5 L 76.5 81.5 L 84 74 L 84 71.5 L 81.5 71.5 L 79 76.5 L 74 79 L 66.5 79 L 59 71.5 Z" fill="#898C99" stroke="none" stroke-width="0" fill-rule="nonzero" />
  <path d="M 64 61.5 L 61.5 64 L 64 66.5 L 66.5 64 Z" fill="#898C99" stroke="none" stroke-width="0" fill-rule="nonzero" />
  <path d="M 56.5 56.5 L 59 56.5 L 66.5 49 L 74 49 L 79 51.5 L 81.5 56.5 L 84 56.5 L 84 54 L 74 46.5 L 66.5 46.5 L 61.5 49 Z" fill="#898C99" stroke="none" stroke-width="0" fill-rule="nonzero" />
  <path d="M 14 46.5 L 14 81.5 L 16.5 79 L 16.5 49 Z" fill="#898C99" stroke="none" stroke-width="0" fill-rule="nonzero" />
  <path d="M 26.5 39 L 26.5 89 L 29 91.5 L 29 39 Z" fill="#898C99" stroke="none" stroke-width="0" fill-rule="nonzero" />
  <path d="M 111.5 36.5 L 111.5 91.5 L 114 91.5 L 114 36.5 Z" fill="#898C99" stroke="none" stroke-width="0" fill-rule="nonzero" />
  <path d="M 34 31.5 L 109 31.5 L 104 29 L 36.5 29 Z" fill="#898C99" stroke="none" stroke-width="0" fill-rule="nonzero" />
</svg>
