<svg xmlns="http://www.w3.org/2000/svg" viewBox="0 0 128 128" width="128" height="128">
  <path d="M 61.22 64 L 61.22 66.78 L 55.67 72.33 L 52.89 72.33 L 52.89 77.89 L 58.44 80.67 L 52.89 91.78 L 55.67 91.78 L 61.22 97.33 L 61.22 100.11 L 66.78 100.11 L 69.56 94.56 L 72.33 94.56 L 75.11 100.11 L 80.67 100.11 L 80.67 97.33 L 86.22 91.78 L 89 91.78 L 89 86.22 L 83.44 86.22 L 80.67 83.44 L 86.22 77.89 L 89 77.89 L 89 72.33 L 86.22 72.33 L 80.67 66.78 L 80.67 64 L 77.89 64 L 72.33 72.33 L 64 64 Z M 75.11 91.78 L 77.89 86.22 L 83.44 89 L 77.89 94.56 Z M 58.44 89 L 61.22 86.22 L 66.78 86.22 L 69.56 89 L 64 94.56 Z M 69.56 83.44 L 72.33 80.67 L 75.11 83.44 L 72.33 86.22 Z M 75.11 77.89 L 77.89 72.33 L 83.44 75.11 L 77.89 80.67 Z M 58.44 75.11 L 64 69.56 L 69.56 75.11 L 64 80.67 Z" fill="#898C99" stroke="none" stroke-width="0" fill-rule="nonzero" />
  <path d="M 39 27.89 L 39 33.44 L 66.78 33.44 L 66.78 27.89 Z" fill="#898C99" stroke="none" stroke-width="0" fill-rule="nonzero" />
  <path d="M 33.44 14 L 25.11 22.33 L 25.11 105.67 L 33.44 114 L 94.56 114 L 102.89 105.67 L 102.89 22.33 L 94.56 14 Z M 33.44 19.56 L 94.56 19.56 L 97.33 22.33 L 97.33 105.67 L 94.56 108.44 L 33.44 108.44 L 30.67 105.67 L 30.67 22.33 Z" fill="#898C99" stroke="none" stroke-width="0" fill-rule="nonzero" />
</svg>
