<svg xmlns="http://www.w3.org/2000/svg" viewBox="0 0 128 128" width="128" height="128">
  <path d="M 28.29 42.57 L 28.29 78.29 L 37.81 78.29 L 40.19 80.67 L 40.19 111.62 L 42.57 114 L 54.48 114 L 56.86 111.62 L 56.86 80.67 L 59.24 78.29 L 68.76 78.29 L 71.14 80.67 L 71.14 111.62 L 73.52 114 L 85.43 114 L 87.81 111.62 L 87.81 80.67 L 90.19 78.29 L 99.71 78.29 L 99.71 44.95 L 97.33 42.57 L 85.43 42.57 L 85.43 68.76 L 78.29 73.52 L 75.9 71.14 L 75.9 44.95 L 73.52 42.57 L 54.48 42.57 L 52.1 44.95 L 52.1 71.14 L 47.33 73.52 L 42.57 68.76 L 42.57 44.95 L 40.19 42.57 Z M 78.29 78.29 L 80.67 78.29 L 85.43 83.05 L 85.43 104.48 L 80.67 109.24 L 75.9 106.86 L 75.9 80.67 Z M 47.33 78.29 L 52.1 80.67 L 52.1 106.86 L 49.71 109.24 L 44.95 109.24 L 42.57 106.86 L 42.57 83.05 Z M 90.19 47.33 L 94.95 47.33 L 97.33 49.71 L 97.33 71.14 L 92.57 75.9 L 87.81 71.14 L 87.81 49.71 Z M 59.24 47.33 L 68.76 47.33 L 71.14 49.71 L 71.14 71.14 L 66.38 75.9 L 61.62 75.9 L 56.86 71.14 L 56.86 49.71 Z M 33.05 47.33 L 37.81 47.33 L 40.19 49.71 L 40.19 71.14 L 35.43 75.9 L 30.67 71.14 L 30.67 49.71 Z" fill="#898C99" stroke="none" stroke-width="0" fill-rule="nonzero" />
  <path d="M 52.1 16.38 L 52.1 33.05 L 75.9 33.05 L 75.9 16.38 L 73.52 14 L 54.48 14 Z" fill="#898C99" stroke="none" stroke-width="0" fill-rule="nonzero" />
</svg>
