<svg xmlns="http://www.w3.org/2000/svg" viewBox="0 0 128 128" width="128" height="128">
  <path d="M 42.38 14 L 34.27 22.11 L 34.27 51.84 L 39.68 57.24 L 39.68 59.95 L 55.89 59.95 L 61.3 65.35 L 61.3 92.38 L 58.59 95.08 L 47.78 95.08 L 45.08 100.49 L 58.59 100.49 L 61.3 103.19 L 61.3 114 L 66.7 114 L 66.7 65.35 L 77.51 59.95 L 85.62 59.95 L 93.73 51.84 L 93.73 22.11 L 85.62 14 Z M 36.97 22.11 L 39.68 19.41 L 88.32 19.41 L 91.03 22.11 L 91.03 54.54 L 88.32 57.24 L 42.38 57.24 L 36.97 51.84 Z" fill="#898C99" stroke="none" stroke-width="0" fill-rule="nonzero" />
</svg>
