<svg xmlns="http://www.w3.org/2000/svg" viewBox="0 0 128 128" width="128" height="128">
  <path d="M 25.9 42.57 L 25.9 78.29 L 35.43 78.29 L 40.19 83.05 L 40.19 114 L 56.86 114 L 56.86 83.05 L 61.62 78.29 L 66.38 78.29 L 71.14 83.05 L 71.14 114 L 87.81 114 L 87.81 83.05 L 92.57 78.29 L 102.1 78.29 L 102.1 44.95 L 99.71 42.57 L 83.05 42.57 L 83.05 71.14 L 80.67 73.52 L 75.9 68.76 L 75.9 42.57 L 52.1 42.57 L 52.1 71.14 L 47.33 73.52 L 44.95 71.14 L 44.95 42.57 Z M 92.57 47.33 L 97.33 54.48 L 97.33 68.76 L 92.57 73.52 L 87.81 68.76 L 87.81 52.1 Z M 61.62 47.33 L 66.38 47.33 L 71.14 52.1 L 71.14 68.76 L 66.38 73.52 L 59.24 73.52 L 56.86 71.14 L 56.86 54.48 Z M 35.43 47.33 L 40.19 52.1 L 40.19 68.76 L 35.43 73.52 L 30.67 68.76 L 30.67 54.48 Z" fill="#898C99" stroke="none" stroke-width="0" fill-rule="nonzero" />
  <path d="M 52.1 14 L 52.1 35.43 L 75.9 35.43 L 75.9 14 Z M 56.86 23.52 L 61.62 18.76 L 66.38 18.76 L 71.14 23.52 L 71.14 25.9 L 66.38 30.67 L 61.62 30.67 L 56.86 25.9 Z" fill="#898C99" stroke="none" stroke-width="0" fill-rule="nonzero" />
</svg>
