<svg xmlns="http://www.w3.org/2000/svg" viewBox="0 0 128 128" width="128" height="128">
  <path d="M 14 50.11 L 14 100.11 L 22.33 108.44 L 105.67 108.44 L 114 100.11 L 114 50.11 L 102.89 50.11 L 66.78 86.22 L 61.22 86.22 L 25.11 50.11 Z M 19.56 58.44 L 22.33 55.67 L 55.67 89 L 66.78 91.78 L 72.33 89 L 105.67 55.67 L 108.44 58.44 L 108.44 102.89 L 105.67 105.67 L 22.33 105.67 L 19.56 102.89 Z" fill="#898C99" stroke="none" stroke-width="0" fill-rule="nonzero" />
  <path d="M 89 33.44 L 86.22 33.44 L 72.33 47.33 L 69.56 47.33 L 66.78 44.56 L 66.78 22.33 L 64 19.56 L 61.22 22.33 L 61.22 44.56 L 58.44 47.33 L 55.67 47.33 L 41.78 33.44 L 39 33.44 L 39 39 L 58.44 58.44 L 69.56 58.44 L 89 39 Z" fill="#898C99" stroke="none" stroke-width="0" fill-rule="nonzero" />
</svg>
