<svg xmlns="http://www.w3.org/2000/svg" viewBox="0 0 128 128" width="128" height="128">
  <path d="M 35.05 35.05 L 35.05 37.68 L 40.32 40.32 L 40.32 45.58 L 35.05 48.21 L 35.05 106.11 L 42.95 114 L 85.05 114 L 92.95 106.11 L 92.95 50.84 L 87.68 45.58 L 87.68 40.32 L 92.95 37.68 L 92.95 35.05 L 90.32 35.05 L 87.68 40.32 L 82.42 40.32 L 79.79 35.05 L 77.16 35.05 L 77.16 37.68 L 82.42 40.32 L 82.42 45.58 L 79.79 48.21 L 77.16 48.21 L 71.89 42.95 L 71.89 40.32 L 66.63 48.21 L 61.37 48.21 L 58.74 45.58 L 58.74 40.32 L 66.63 35.05 L 61.37 35.05 L 61.37 37.68 L 56.11 40.32 L 56.11 42.95 L 50.84 48.21 L 45.58 45.58 L 45.58 40.32 L 50.84 37.68 L 50.84 35.05 L 48.21 35.05 L 45.58 40.32 L 40.32 40.32 L 37.68 35.05 Z M 61.37 58.74 L 66.63 58.74 L 69.26 61.37 L 69.26 74.53 L 71.89 77.16 L 82.42 77.16 L 87.68 82.42 L 82.42 87.68 L 69.26 87.68 L 69.26 100.84 L 66.63 103.47 L 61.37 103.47 L 58.74 100.84 L 58.74 87.68 L 48.21 87.68 L 42.95 82.42 L 45.58 77.16 L 56.11 77.16 L 58.74 74.53 L 58.74 61.37 Z" fill="#898C99" stroke="none" stroke-width="0" fill-rule="nonzero" />
  <path d="M 71.89 27.16 L 69.26 27.16 L 64 19.26 L 61.37 24.53 L 56.11 27.16 L 56.11 29.79 L 58.74 29.79 L 61.37 24.53 L 66.63 24.53 L 69.26 29.79 L 71.89 29.79 Z" fill="#898C99" stroke="none" stroke-width="0" fill-rule="nonzero" />
  <path d="M 85.05 14 L 82.42 16.63 L 87.68 16.63 L 90.32 19.26 L 90.32 24.53 L 87.68 27.16 L 82.42 27.16 L 77.16 19.26 L 77.16 24.53 L 79.79 24.53 L 85.05 32.42 L 87.68 27.16 L 92.95 24.53 L 92.95 21.89 Z" fill="#898C99" stroke="none" stroke-width="0" fill-rule="nonzero" />
  <path d="M 69.26 14 L 69.26 16.63 L 71.89 16.63 L 71.89 14 Z" fill="#898C99" stroke="none" stroke-width="0" fill-rule="nonzero" />
  <path d="M 56.11 14 L 56.11 16.63 L 58.74 16.63 L 58.74 14 Z" fill="#898C99" stroke="none" stroke-width="0" fill-rule="nonzero" />
  <path d="M 40.32 14 L 40.32 16.63 L 45.58 16.63 L 48.21 19.26 L 48.21 24.53 L 45.58 27.16 L 40.32 27.16 L 37.68 21.89 L 35.05 21.89 L 40.32 27.16 L 40.32 29.79 L 45.58 29.79 L 45.58 27.16 L 50.84 24.53 L 50.84 19.26 L 48.21 19.26 L 45.58 14 Z" fill="#898C99" stroke="none" stroke-width="0" fill-rule="nonzero" />
</svg>
