<svg xmlns="http://www.w3.org/2000/svg" viewBox="0 0 128 128" width="128" height="128">
  <path d="M 53.47 53.47 L 53.47 74.53 L 74.53 74.53 L 74.53 53.47 Z" fill="#898C99" stroke="none" stroke-width="0" fill-rule="nonzero" />
  <path d="M 50.84 14 L 48.21 16.63 L 48.21 24.53 L 37.68 29.79 L 27.16 40.32 L 27.16 45.58 L 24.53 48.21 L 16.63 48.21 L 14 50.84 L 14 56.11 L 16.63 58.74 L 24.53 58.74 L 27.16 61.37 L 27.16 66.63 L 24.53 69.26 L 16.63 69.26 L 14 71.89 L 14 77.16 L 16.63 79.79 L 24.53 79.79 L 32.42 95.58 L 48.21 103.47 L 48.21 111.37 L 50.84 114 L 58.74 111.37 L 58.74 103.47 L 61.37 100.84 L 66.63 100.84 L 69.26 103.47 L 69.26 111.37 L 74.53 114 L 79.79 111.37 L 79.79 103.47 L 82.42 100.84 L 87.68 100.84 L 100.84 87.68 L 100.84 82.42 L 103.47 79.79 L 111.37 79.79 L 114 77.16 L 114 71.89 L 111.37 69.26 L 103.47 69.26 L 100.84 66.63 L 100.84 61.37 L 103.47 58.74 L 111.37 58.74 L 114 56.11 L 114 50.84 L 111.37 48.21 L 103.47 48.21 L 100.84 45.58 L 100.84 40.32 L 87.68 27.16 L 82.42 27.16 L 79.79 24.53 L 79.79 16.63 L 77.16 14 L 71.89 14 L 69.26 16.63 L 69.26 24.53 L 66.63 27.16 L 61.37 27.16 L 58.74 24.53 L 58.74 16.63 L 56.11 14 Z M 37.68 40.32 L 40.32 37.68 L 87.68 37.68 L 90.32 40.32 L 90.32 87.68 L 87.68 90.32 L 40.32 90.32 L 37.68 87.68 Z" fill="#898C99" stroke="none" stroke-width="0" fill-rule="nonzero" />
</svg>
