<svg xmlns="http://www.w3.org/2000/svg" viewBox="0 0 128 128" width="128" height="128">
  <path d="M 114 27.16 L 111.37 24.53 L 106.11 24.53 L 100.84 35.05 L 24.53 35.05 L 19.26 37.68 L 19.26 40.32 L 14 45.58 L 14 82.42 L 24.53 92.95 L 100.84 92.95 L 103.47 95.58 L 103.47 103.47 L 114 103.47 Z M 58.74 48.21 L 61.37 45.58 L 100.84 45.58 L 103.47 48.21 L 103.47 79.79 L 100.84 82.42 L 64 82.42 L 61.37 79.79 L 61.37 50.84 Z M 45.58 45.58 L 50.84 45.58 L 53.47 48.21 L 50.84 50.84 L 50.84 77.16 L 53.47 79.79 L 50.84 82.42 L 45.58 82.42 L 42.95 79.79 L 45.58 77.16 L 45.58 50.84 L 42.95 48.21 Z M 27.16 45.58 L 35.05 45.58 L 37.68 48.21 L 35.05 50.84 L 35.05 77.16 L 37.68 79.79 L 35.05 82.42 L 27.16 82.42 L 24.53 79.79 L 24.53 48.21 Z" fill="#898C99" stroke="none" stroke-width="0" fill-rule="nonzero" />
</svg>
