<svg xmlns="http://www.w3.org/2000/svg" viewBox="0 0 128 128" width="128" height="128">
  <path d="M 39.76 59.45 L 57.94 59.45 L 60.97 62.48 L 60.97 80.67 L 64 83.7 L 67.03 80.67 L 67.03 62.48 L 70.06 59.45 L 88.24 59.45 L 91.27 56.42 L 70.06 56.42 L 67.03 62.48 L 60.97 62.48 L 57.94 56.42 L 39.76 56.42 Z" fill="#898C99" stroke="none" stroke-width="0" fill-rule="nonzero" />
  <path d="M 60.97 32.18 L 60.97 50.36 L 67.03 50.36 L 67.03 32.18 Z" fill="#898C99" stroke="none" stroke-width="0" fill-rule="nonzero" />
  <path d="M 33.7 14 L 21.58 26.12 L 21.58 89.76 L 30.67 98.85 L 36.73 98.85 L 42.79 104.91 L 42.79 114 L 45.82 114 L 45.82 104.91 L 51.88 98.85 L 76.12 98.85 L 82.18 104.91 L 82.18 114 L 85.21 114 L 85.21 104.91 L 91.27 98.85 L 97.33 98.85 L 106.42 89.76 L 106.42 26.12 L 94.3 14 Z M 24.61 26.12 L 30.67 20.06 L 97.33 20.06 L 103.39 26.12 L 103.39 89.76 L 97.33 95.82 L 30.67 95.82 L 24.61 89.76 Z" fill="#898C99" stroke="none" stroke-width="0" fill-rule="nonzero" />
</svg>
