<svg xmlns="http://www.w3.org/2000/svg" viewBox="0 0 128 128" width="128" height="128">
  <path d="M 92.38 55.89 L 89.68 53.19 L 78.86 64 L 76.16 64 L 76.16 66.7 L 41.03 101.84 L 38.32 101.84 L 32.92 107.24 L 27.51 107.24 L 22.11 101.84 L 24.81 91.03 L 30.22 85.62 L 32.92 85.62 L 43.73 74.81 L 43.73 72.11 L 65.35 50.49 L 68.05 50.49 L 73.46 45.08 L 76.16 39.68 L 73.46 36.97 L 68.05 36.97 L 16.7 88.32 L 16.7 107.24 L 14 109.95 L 16.7 112.65 L 41.03 112.65 L 92.38 61.3 Z" fill="#898C99" stroke="none" stroke-width="0" fill-rule="nonzero" />
  <path d="M 68.05 18.05 L 68.05 20.76 L 108.59 61.3 L 111.3 61.3 L 111.3 53.19 L 97.78 39.68 L 97.78 36.97 L 114 20.76 L 114 18.05 L 108.59 15.35 L 92.38 31.57 L 89.68 31.57 L 76.16 18.05 Z" fill="#898C99" stroke="none" stroke-width="0" fill-rule="nonzero" />
</svg>
